<?xml version="1.0" encoding="UTF-8"?>
<svg id="Layer_1" xmlns="http://www.w3.org/2000/svg" version="1.1" viewBox="0 0 720 720">
  <!-- Generator: Adobe Illustrator 29.1.0, SVG Export Plug-In . SVG Version: 2.1.0 Build 142)  -->
  <defs>
    <style>
      .st0 {
        stroke-miterlimit: 10;
      }

      .st0, .st1 {
        fill: #fff;
        stroke: #fff;
      }

      .st1 {
        stroke-linecap: round;
        stroke-linejoin: round;
        stroke-width: 2px;
      }
    </style>
  </defs>
  <g id="Layer_11" data-name="Layer_1">
    <circle cx="360.5" cy="360.5" r="356.5"/>
  </g>
  <g id="Layer_2">
    <g>
      <path class="st0" d="M402.2,72.7c8,4.6,14.1,8.4,20.8,15.3s8.1,9.9,11.7,15.2c4.3.4,7.7-6.5,10.2-7.3s24.6-4.2,27.1-4.2c14.8.4,47.2,13.4,57,25.2,9.8,11.8,18.1,31.6,20.3,39.5s-.5,2-.4,3.1c13.4-4.8,27-12.7,41.6-13s25.9,6.4,32.5,11.3c10.4,7.6,29.4,42.4,31.5,55.2,7.1,44.2,7.2,60.1-17.5,97.1-36.2,54.6-76,71.3-139.7,79.4-25.2,3.2-50.8,6.3-76.4,3.6l-1.5,12.9c7.7-.9,15.5.6,23.2.5,34-.1,69.6-3.2,103.5,1.1,10.7,1.4,21,3.8,29.7,10.5,9.8,21.3-9.9,24.2-25.8,27-28.4,5-64.9,5.6-94,6.1-12.4.2-24.9-1.6-37.1,1,1.6,2.5-.6,5-.5,7.2.5,20.9,9.2,51.1,21.3,68.3,14.4,20.6,44,0,30.7-14.3-5-5.4-12.8-2.6-18.8-1-6.9-18.2,12.6-38.7,30.3-39.4,2.9-.1,21.9,2.7,24,3.9,15,8.5,27.2,40.6,27.5,57.2.5,27.3-25.3,49.5-49.4,55.5s-1.9,2.1-3.1,2.4-.2-1-.4-.9c-4.3.8-6.3.6-10.5.4s1,1.5-.8,1l-.3-1.5h-12.8c-1.8-1.2-2.8-5.2-2.1-6.9,1.4-3.4,11.1-3.1,14.7-3.7s2.4-2,3.8-2.2c4.7-.7,9.1.5,14.9-1.5s14.2-10.8,19.4-15c5.2-4.2,1.8-2.4,3.1-3.4l1.2,3.5,2.5-6.5,2,.5,2-5.7-2-2,3.2-.7c1.5-1.4,0-4.8.3-5s1.7,0,2-.8-.5-1.6-.4-2.3c.8-3.5,3.4-10.9,2.2-14.6s-2.4,0-1.8-2.2l2-.3c0-.8-5.8-4-2.5-6.2l1.5,3.5c.5-4.2-2.9-6.1-4.3-8.6s0-2-.7-3.1-1.7-.6-1.9-.9c-.7-1.1,0-4.7-3.4-4.9l.3-2-1.5.8c-9-21.4-45.2-25.8-47.8,2.2,4.8-1.8,7.4,2.7,10.6,4.1s6.7.2,8.6,2.9l4.8,16.7c1.9,11.3-27.3,21-34.7,20.6s-6.2-3.7-9.6-2.1c-.6-.2-9-7.3-9.4-7.8-5.3-6.8-17.3-35.8-19.4-44.6-3-12.8-3.5-25.9-3.1-39l-2.2.5c-.6.6.1,13.2-.4,15.6-1.3,6.3-5.4,12.2-6.3,20.1-1.8,15.6,6.4,39.3,16.3,51.3s5.2,3.5,5.4,3.8c.3.5,0,2.7.9,3.9,15.5,20.4,24,39.4,22.6,66-.3,5.7-2.6,12.9-2.5,18.4,0,3.2,2.2,8.2,2,10.4s-4.9,10.1-5.7,12.3.4,1.9,0,2.8c-1.4,3.1-5.9,6.4-5.6,11.3-2.4,0-4.6,5-6.1,6.2s-5.4,2.7-6.8,3.4-2.2,0-2.6,0,.5.9.5.9c-2.8,1.4-8.6,4.7-11.3,5.4-11.6,3-28.7,2.5-39.3-3.3-11.1-6.1-16.5-21.3-15.6-33.5l-12.8,10.1c-9.3,8.5-26.5-1.8-36.7-8.2-30.7-19.1-40.2-51.4-15.7-81.1.1,0,1.2.5,1.4.2,16.8-20.6,30.7-36.8,31.3-65.7s-3.2-9.3-3.9-15,2-34.2-1.7-38.6-5.9-3-7.9.1c1,29-5.9,58.9-21.9,83.2-16,24.3.4,1.9,0,2.3-1,1.3-8.4,6.5-9.9,8.3-2.5-2.4-5.8,1.8-9.2,2-5.4.2-29.5-8.5-32.4-13.2s1.8-17.6,3.2-24.6l19-6.8c1.3-1.1-4.6-12.5-5.7-13.9-6.1-7.8-22.5-5.6-30.5-1.1-4.9,2.8-9.5,8.2-11.6,13.3l-1.5-.8.3,2c-3.3.1-2.7,3.8-3.4,4.9s-1.4,0-1.9.9-.3,2.3-.7,3.1c-1.4,2.5-4.9,4.4-4.3,8.6l1.5-3.5c3.3,2.2-2.5,5.4-2.5,6.2l2,.3c.6,2.2-1.5,1.2-1.8,2.2-1.2,3.7,1.4,11.1,2.2,14.6s-.5,1.8-.4,2.3c.3,1,1.9.7,2,.8.1.2-1.2,3.6.3,5l3.2.7-2,2c2.8,1.2.2,7.2,4,5.2l2.5,6.5,1.2-3.5c1.2,1,1.8,2.4,3.1,3.4,5.4,4.5,11.8,12.3,19.4,15,6.1,2.2,10.5.8,14.8,1.6s2.3,2,3.3,2.2c3.9.7,13.1,0,14.9,3.6l-.8,6.3c-4.9,3.3-11.1-1.1-15.2,2.3l.3-1c-3.4.6-6.9,0-10.3-.4s-.1,1-.4.9c-1.2-.4-1.6-2-3.1-2.4-45.8-11.5-61.9-55.3-36.9-95.9,2.5-4.1,10.5-14.1,14.4-16.5s22.3-4.8,24.6-4.8c16.3.4,37.3,22.2,29.8,39.4-7.5-2.8-19.4-4.1-21.5,6.3-3.4,17.5,22.6,24.4,33.1,9.2,11.5-16.5,19.6-43.8,19-64.1,2.6-3.3.2-8.5.8-12.8-.5-.6-13.1-1.4-15-1.4-12.3,0-24.8.5-37.3.3-6.9,0-15.7,1.3-22.4,1.1s-14.6-2.5-20.9-3c-11.6-1-21.8-.5-33.7-2.6-6.6-1.2-26.2-4.9-28.2-11.7-5.6-19.3,18.4-24,32.1-25.9,41.1-5.5,83.7.6,125.2-3.7l-1.5-12.4c-8,.1-16.1,1.9-24.2,2-51.9.7-116.3-10.3-157.9-43.3s-48.5-60.9-53.2-80.8c-2.5-10.6,1.7-52.8,4.9-63.7,2.8-9.5,20.1-40.1,27.4-46.3s26-13.1,34.8-13c14.6.2,28.2,8.2,41.6,13,0-1.1-.7-2-.4-3.1,2.2-7.9,15.1-33.2,20.3-39.5,9.8-11.8,42.2-24.7,57-25.2s24.8,3.4,27.1,4.2,4.4,6.7,8.5,6.2,10.4-17.3,17-20.9,9.6-5.2,15.6-8.7c16.1-9.6,43.4-8,62.2-10.5,9.4,2.7,15.9,6.1,24.3,10.8v.3ZM398.2,169c.6-4.3.2-9.3,1.1-13.5,1.9-9.1,9.1-27.2,14.8-34.5s8.9-6,12.4-10.5c-9-16.4-25.8-32.2-44.3-37.3s-38.1-1.4-49.7,2.6-28.4,15.3-32,20.3-2.2,9.7-8.5,12.9c3.6,5.7,9.8,7.2,13.9,12.6s12.5,24.8,14.4,33.9,1.4,12.4,1.2,13.3-1.5.2-1.5.3c0,1.3.9,3.1.8,4.6-2,28.8-6.8,53.2-24.7,76.3-17.9,23.1-2.9,4.3-3.5,6.2l-1.5-1.5-20.6,24.2c-11.9,5.3-25,11.4-38.8,10-5.7-4.5-3.5-6.2,2-8.3s6.3-1.5,9.2-3.3c32.2-4.8,60.3-47.8,63.2-78.2s0-54.1-6.1-67.6c-5.6-12.3-30.4-26.1-43.5-29.2s-36.3,5.7-46.1,11.5-13.3,10.6-11.3,16.3h-2.4c-5.7,11.1-11.4,22.2-13.9,34.5,3.4,6.2,9.6,11.2,13,17.4,5.3,9.8,10.4,37.8,7.9,48.3s-6.2,8.4-7.3,10.8-1.1,7.1-1.3,7.4-3.4,1.4-4.6,2.6c-9.5,9.2-16.8,9-28.5,14.3l-5.3-1.4-1.3-4.1,5.5-.3-.8-2.8c3.9-1,7.5-3,11.3-4.4s3.8.3,4.3.1c4.7-1.4,17.6-25.4,17.2-30.4s-2.4-1.8-2-3.6l1.8-1.6c-1.1-13.5-2.7-31.3-13.9-40.9-9.6-8.2-32-16.1-44.5-18-4.9-.8-24.2,2.5-28.2,5s-1.5,2.5-2.8,3.6-2.3.1-2.5.3.6,1.4.5,1.5-1.5,0-2,.7c-2.5,3.4-3.2,9.5-7.4,11.5l2,1.2-1.5-.2c.2.8-2.9,7.4-3.2,7.7-.6.7-1.9-.3-2.2.2-3.2,4.5-5.8,13.7-6.5,19.2l-1-.5c-1.5,7.7-4.8,14.6-5.5,22.6s-.6,37.4,2.2,46.7,15.4,24.7,23.3,35.1c1.7,2.3,3,6.7,5.4,8.9l-2,.5c6.8,5.6,12.8,15.6,19.2,21.1,7.4,6.3,47.5,29.4,56.2,30.4,4.1.4,10.8-1,15.5-.4,15.2,1.6,32.7,5,48.2,7.1,2.7.4,6.5,2.1,8.6,2.4s.7-1,.9-1c1.6.2,5.7,1.8,7.6,2.3,4.1-1.9,9.1-.6,13.7-.9s.7-1.5,1.1-1.5,3.8,1.8,6,1.5,1.1-1.5,1.6-1.5c5.4-.7,10.7-.8,16-2l-.3-5.9h-1.7l1.5,2.2-1.2,1.2-1.8-3.5c-3.9.7-7.8,1-11.7,1.5s.4,1.4-1,1.6-2.2-1-3-1c-14.6.3-47.5-.1-54.9-14.9s-2.4-8.5,3.7-12c12.6-7.2,23.5-7.8,37.6-7.8s1-1.3,1.2-1.3c10.2.2,23.9,4.9,34.8,5s11.7-.4,12.2-.8l.7-14.7,10.2-4.7c-8.2-4.2-15.5-.2-18.8-10.6-5.4-17.3,2.5-33.5,11.6-47.9s20-28.8,27.5-29.3l10.3,3.9c9.6-6,13.7-5.8,21.7,1.7s18.4,24.4,22.4,38.1l1-.5c-.9,4.2,2.8,9.1,4,13.2,2.5,8.4,5.1,17.5,1.4,26l-13.3,5.6c14.6-1.5,11.2,12.3,11,21.9,5.2-.3,11,.3,16.2,0,21-1.3,42.3-9.9,64-2.7,3.1,1.1,15,6.6,16.1,9.7.3,2.2-.8,5.2-1.8,7.1-7.3,14.4-41.5,16.1-55.9,16.3s-2,1.2-3,1.1-1.1-1.5-1.6-1.5c-3.8-.4-7.4-1.3-11.2-1l-2.6,3.5-1-4-.8,6c5.8,2,11,1.1,16.7,1.6s.6,1.6,2.1,1.7,4.6-1.1,5.9-1.1c3.9.1,11.9,1.3,15.4,1.1s1.5-1.3,2.1-1.3c.9,0,.7,1,.9,1,.9-.1,2.6-1.6,3.7-1.8,19-3,40.3-7.1,59-9.2,9.8-1.1,13.7,1.2,24.1-2.3,33.1-11.5,57.7-36.1,76.2-63.7,19.6-29.2,23.1-46,18.4-83l-11.9-34.5c-2.4.9-5.3-5.9-5.5-7.9l-1.5.2,2-1.2c-4.2-2-4.9-8.1-7.4-11.5s-2-.6-2-.7c0-.1.7-1.3.5-1.5s-1.9.2-2.5-.3c-1.3-1.1-1.2-2.6-2.8-3.6-4.3-2.6-23.5-5.8-28.7-5-12.5,2.1-34.4,9.8-44,18s-12.8,27.3-13.9,40.9c3.8,2.8,0,4.4-.2,5.1-.3,3.3,7.9,20.5,10.3,24,6.3,9.5,15.7,14.7,27.1,15.5l-1.5,2.7-5.1,1.2c-11.7-5.3-19.1-5.2-28.5-14.3s-4.5-2.4-4.6-2.6c-.2-.3-.6-5.9-1.3-7.4-1-2.3-7.1-10-7.3-10.8-2.6-10.7,2.7-38.8,8.1-48.7s9.7-11.1,12.8-17.5c-2.8-12.2-8.3-23.2-14-34.1-4.1.8-1.3-1.6-2.2-4.5-4.1-13.9-45.4-26.5-58.1-23.3s-37.4,16.7-43.1,29.1c-5.8,12.7-7.3,47.6-6.6,62.1,1.4,30.6,22.6,63.4,49.1,78.4s7,3.6,7.9,3.9,1.5-1.5,3.1.5c3.9-1.6,8.3,3.7,10.2,4.5s5.2-.7,6.9,1.3-.2,5.7-2.8,6.7c-18.4-1-35.9-9.9-48.7-23s-5.6-7.3-8.8-10.7l-1.5.8c-2.4-5.6-9.2-10.3-12.2-15-4.6-7.5-7.4-19.7-11.6-27.7l-3.1-.9,2.5-2.5-5.9-41.1-.5.4ZM359.2,273.1c4.9,15.3-1.9,42.8,18,47.6l19.3-9.6c2.1-4.5-7.8-28.8-10.3-34.3s-3.5-7.7-5.5-11.5-10.1-17.9-12.3-20-3.3-2-4.5-2.1c-6.1,0-6.7,5-7.8,9.7l-1.7,1.3-2.7-1.2c-.5-5.9-3.3-10-9.8-7.3s-21.5,33.2-24.3,38.9c-4.7,9.4-8.9,16.6-3.2,27.1l25.4,8.2,3.9-4.2,6.7-37.8,2.3-.6,1.5,2.5-1.4,24.3,2,1.1c-1.7,2.9-.8,7.7-1.5,10.3s-1.4.7-1.8,1.4.3,2.1-.2,2.7-1.8.1-2.3.8.6,1.7.3,2c-.6.5-13.1,6.4-14.2,6.5s-5.1-1-5.7-.8c-1,.2-6.6,2.9-7,3.6v1.2c4.5-1,1.4,4.8,1.5,5.2,1.7,18,2.5,35.7,2.5,53.8s.6,12,.5,17.5-1.9,15.2-2,22.2l22.4.5c1.5-6.7-3.4-12.2-3.5-18.7s1.8-13.1,1.4-17.3-2.7-8.7-2.9-11c-.8-10.3-1.4-20.9-2.5-30.4s1.1-1.6,1-2.9c-.3-2.3-1.7-3.8-1.8-4.5s1.2-1.1.8-2.9-3.2-3.6-2.9-5.6l.8-2.2c7.1-5.4,8.4,6.3,10,10.9s3.4.9.7,5l1.9,1.3c.6,2.1-1.4.4-1.5,1.9,0,2.9,1.3,7,1.4,9.4.6,15.8,2.3,31.9,1.2,47.3,3.4,6.3.6,23.2,11.4,20l.5-1c.5-1.9-2.7-9.2-3-11.9-1.1-9,.1-20.7-.5-29.8s-2.6-13.9-2.9-19.5-.6-17.8,0-20.4,1.6-.6,1.8-1.2-.7-2.8,1.2-3.8l2.5,2.3,1-2.5.2,3.5c4.1,0,.4,5.9.2,9.2-.4,9.5,2.2,21.9,3.5,31.4-2.8,1.8-.2,1,0,3.5.8,9.9-.2,28.3,2.1,37,0,.2,2,2.5,2.2,3.5l20.6.6c-4-8-3.7-20.8-3-29.6s2.8-9.9,2.9-14-2.7-15.7-2.3-19,2-2.9,2.4-5.8c.5-4.3.2-27.2-3-29.4-1.6-1.6-4.6,0-5.6-.3-2.8-.9-24.3-12.7-25.1-14.8.1-14.5-3.7-30.1-1.5-45.1l2.4-1.9-.2-.3ZM277.5,353.7c-13.4-1.7-27.6-5.4-40.9-.8l-2.8,5.1c.4,5.1,16.1,7.3,20.7,7.7,4.6.4,33,1,37.2,0s6.4-6.6,4.1-9.3-12.4-1.5-16-2-1.1-1.5-1.2-1.5c-1.5-.2-.9.9-1.1.9h0ZM439.8,355.1c-3.4.6-16.8,1.2-18.3,3.4l.4,5.6c.5,1.1,3.6,2.9,4.9,3.1,6.4,1.1,31.1-.2,38.2-1.2,5.8-.8,28.9-4.1,18-13.2-14.2-4-29.1,0-43.2,2.2h0ZM306,358v72.5h10.5c0-6.6,1.1-13.4,1.2-20,.2-11.9-.8-24.3-1.2-36.1s1-17.6-.4-19c-1.7-1.2-9.4.1-10,2.5h-.1ZM411.5,432v-71.5c-1.2-2.8-8.1-5.1-10.2-3.2l-1.2,2.3c.9,19.3-.3,38.4,1.5,57.2s-1.2,9.8,1.5,15.2h8.5,0ZM287.9,409.2c-15.1.2-30.3,2.6-45.5,2.8-24.3.3-45.4-1.7-70.1,2.1-9,1.4-25.2,3.2-25.1,15,.7,1.2,1.7,1.9,2.7,2.8,22.5,18.5,125.5,10.9,157.3,11,50.5.3,100.9,3.6,151.4,2.5s85.4-.3,109.3-11.3c5.4-2.5,5-8.4,1.5-12.4-12.2-13.9-85.3-9.6-104.8-9.7s-43-2.5-45.6-.3l-.6,3.1,2,2c40.1,3.4,81-2,120.7,4.3l13.7,4.7c.8,1.2-.8,4-1.7,4.8-7.6,6.9-87.5,8-102.4,8.2-44.6.6-89.3-1.8-133.9-2.1-40.8-.2-81.8,3.2-122.5-.5-4.5-.4-23.1-2.6-26.1-4.3s-3.4-3.7-4-5.4c.5-2.3,17.3-6.4,20.1-6.8,35.2-4.7,75.7,0,111.5-4.5l3.4-2.1-.7-3.6c-1.7-1.4-8.1-.7-10.5-.6v.3ZM177.5,427.5c-2.1,3.4,25.3,4.2,26.8,4.3s2.4,1.1,3.8,1.2c29.8,1.5,60.2-2.5,89.6-2.6l1.9-8.7-1.3-1.7c-4.6,2.8-10.2.7-15,1-12.1.7-24.6,3.5-36.8,4-23,1-46.2-1.8-69,2.5h0ZM542.5,428l-17.2-4-106.8-1.5.4,8.1c.6.8,3.7.8,4.8.8,29.7,2.4,76.7,3,106,0,3.1-.3,11.1-1.2,12.8-3.4h0ZM347.8,451.9l-22.4-1.5c1.9,10.5-.9,23.3.5,33.6.9,6.4,5.2,14,5.9,22s-10.1,45.9-15.6,54.5c-2.8,4.4-9.3,8.2-13,12.4-7.2,8.3-14.2,25.2-12.9,36.3s4.8,17.2,7.4,20.5,1.5-.2,1.7,0c25.3,30.4,52,24.6,64.6-12.5s4.2-44.1,0-58.7c-1.6-5.6-5.1-11.3-8-16.3l1.6-4.2,7.3,7.3c7.3,14.6,13,25.5,14.4,42.3,1.5,18.4-5.1,24.3-8.8,40.5s-4.1,21.3-3.9,23.5c.5,4.9,4.5,11.7,4.3,17,1.6,3.2,5.6,2.8,6.3,3.4,1.3,1.3-1.3,3.2,3.5,4.2s13.7.2,17.2-.5,2.2-1.8,2.6-1.9c1.1-.3.5,1.3,1.4,1,6.9-2.3,14.2-10.2,21.5-12.9,47.6-57.8-21-104.9-29.2-160.5-.3-1.8-2.3-4.6-2.2-6,.2-5.2,5.5-17.5,6.2-24s0-16.2-1.4-17.3c-2.8,0-5.5-.5-8.3-.7s-1.4,1-2,.9-.4-1.4-1-1.4c-1.5,0-11.6,0-12,.4l3.1,34.6-4,2.6-4.6-6.2-2.8-30.5-8.7-1.5,1.5,22.7-3.7,2.1c-2.3-.4-3.2-.5-4.2-2.7s-1.3-21.5-2.1-22.5h-.2Z"/>
      <path class="st0" d="M415.5,513.1c8.3,19.2,15.6,37.1,35.9,46.3-24.4.2-34.7-25.7-36.9-46.1l1-.3h0Z"/>
      <path class="st0" d="M308,513.1c-2.2,19.5-11.7,47.6-35.9,46.8l14.2-9.5c5.1-5.5,9.4-11.9,12.8-18.6,3-6,4.2-14,8.9-18.8h0Z"/>
      <path class="st1" d="M415.5,513.9c.5,1.7,1,3.3,1.5,5"/>
      <path class="st1" d="M445.4,557.6c2.1.7,4.2,1.4,6.2,2.1"/>
      <path class="st1" d="M308,513.9c-.5,1.7-1,3.3-1.5,5"/>
      <path class="st1" d="M278.1,558.6c-1.7.5-3.5.9-5.2,1.4"/>
      <path class="st1" d="M359.3,273.8c-.2,1-.3,2-.5,3"/>
      <path class="st1" d="M510.7,559.2c-.3,1-.7,2-1,3"/>
      <path class="st1" d="M209.8,559.2c.3,1,.7,2,1,3"/>
      <path class="st1" d="M424,375.7l-1.5,3.7"/>
      <path class="st1" d="M104.5,322.2c-.8-.4-1.7-.8-2.5-1.2"/>
      <path class="st1" d="M294.8,373.4c-.6,1.6,1,2.1,1.5,3.2"/>
      <path class="st1" d="M198.4,523.4c-.8.3-1.7.7-2.5,1"/>
      <path class="st1" d="M522.1,523.4c.8.3,1.7.7,2.5,1"/>
      <path class="st1" d="M520.9,516.9c0,1.1.2,2.2.4,3.8,1.5-.2,2.8-.4,4.1-.6"/>
      <path class="st1" d="M199.6,516.9c-.1,1.1-.2,2.2-.4,3.8-1.5-.2-2.8-.4-4.1-.6"/>
      <path class="st1" d="M273.8,382.4c.2,1.2.5,2.3.7,3.5"/>
      <path class="st1" d="M204.1,548.8c-1.2.4-2.3.8-3.5,1.2"/>
      <path class="st1" d="M519.9,550c-1.2-.4-2.3-.8-3.5-1.2"/>
      <path class="st1" d="M239.2,589.1c0,1.2-.2,2.3-.2,3.5"/>
      <path class="st1" d="M481.3,589.1c0,1.2.2,2.3.2,3.5"/>
      <path class="st1" d="M550.2,424.2c0,1-.2,2-.2,3"/>
      <path class="st1" d="M398.3,484.3c-1,0-2-.2-3-.2"/>
      <path class="st1" d="M247.7,483c0,1-.2,2-.2,3"/>
      <path class="st1" d="M655.3,277.3c-1,0-2-.2-3-.2"/>
      <path class="st1" d="M393.1,451.6c-.2,1-.3,2-.5,3"/>
      <path class="st1" d="M327.9,660.3c0,1-.2,2-.2,3"/>
      <path class="st1" d="M316.2,140.4c-1,0-2,.2-3,.2"/>
      <path class="st1" d="M407.3,140.6c-1,0-2-.2-3-.2"/>
      <path class="st1" d="M262.1,383.4c.2,1,.3,2,.5,3"/>
      <path class="st1" d="M531.8,518.4c-1,0-2,.2-3,.2"/>
      <path class="st1" d="M191.7,518.6c-1,0-2-.2-3-.2"/>
      <path class="st1" d="M272.1,341.6c-.2,1-.3,2-.5,3"/>
      <path class="st1" d="M403.3,342.1c-1,0-2,.2-3,.2"/>
      <path class="st1" d="M243.2,507.4c.2,1,.3,2,.5,3"/>
      <path class="st1" d="M224.5,356.3c-1,0-2,.2-3,.2"/>
      <path class="st1" d="M292,344.1c-.2,1-.3,2-.5,3"/>
      <path class="st1" d="M81.1,204.6c-1,0-2-.2-3-.2"/>
      <path class="st1" d="M642.4,204.4c-1,0-2,.2-3,.2"/>
      <path class="st1" d="M482.3,344.6c-.2,1-.3,2-.5,3"/>
      <path class="st1" d="M531.8,548.5c-1-.2-2-.3-3-.5"/>
      <path class="st1" d="M191.7,548c-1,.2-2,.3-3,.5"/>
      <path class="st1" d="M387.9,65.7c0,1-.2,2-.2,3"/>
      <path class="st1" d="M498.9,356.5c-1,0-2-.2-3-.2"/>
      <path class="st1" d="M311.9,353c.2,1,.3,2,.5,3"/>
      <path class="st1" d="M68.2,277.1c-1,0-2,.2-3,.2"/>
      <path class="st1" d="M389.9,66.2c0,1-.2,2-.2,3"/>
      <path class="st1" d="M438.2,658.1c1,.2,2,.3,3,.5"/>
      <path class="st1" d="M288.8,635.2c-1,.2-2,.3-3,.5"/>
      <path class="st1" d="M146.3,420.5c-1,0-2-.2-3-.2"/>
      <path class="st1" d="M577.1,420.3c-1,0-2,.2-3,.2"/>
      <path class="st1" d="M346.3,321.2c0,1,.2,2,.2,3"/>
      <path class="st1" d="M292,253.2c.2,1.1.3,2.2.5,3.2"/>
      <path class="st1" d="M620.5,321.9c-1-.2-2-.3-3-.5"/>
      <path class="st1" d="M347.8,64.7c.2,1,.3,2,.5,3"/>
      <path class="st1" d="M252.4,275.8c0,1,.2,2,.2,3"/>
      <path class="st1" d="M393.4,371.2c-1-.2-2-.3-3-.5"/>
      <path class="st1" d="M373.7,488l-.7,3"/>
      <path class="st1" d="M249.7,590.6c.2.7.3,1.5.5,2.2-.3,0-.5.2-.8.3"/>
      <path class="st1" d="M429.5,253.9c0,.8-.2,1.7-.2,2.5"/>
      <path class="st1" d="M208.7,420.3c0,.6,0,1.2.1,1.7"/>
      <path class="st1" d="M302.5,425.5c-.6,0-1.2,0-1.7-.1"/>
      <path class="st1" d="M186.3,408.3c0,.6,0,1.2.1,1.7"/>
      <path class="st1" d="M363.5,345.1c-.2,1.1-.5,2.2-.7,3.2"/>
      <path class="st1" d="M533.9,408.3c0,.6,0,1.2,0,1.7"/>
      <path class="st1" d="M93.6,182.2c-.3-.2-.7-.3-1-.5-.3,0-.5.2-.7.3"/>
      <path class="st1" d="M628.7,182c-.2,0-.5-.2-.7-.3-.3.2-.7.3-1,.5"/>
      <path class="st1" d="M359.3,290.5c-.4,0-.8,0-1.2-.1"/>
    </g>
  </g>
</svg>