<?xml version="1.0" encoding="UTF-8"?>
<svg id="Layer_1" xmlns="http://www.w3.org/2000/svg" version="1.1" viewBox="0 0 720 720">
  <!-- Generator: Adobe Illustrator 29.1.0, SVG Export Plug-In . SVG Version: 2.1.0 Build 142)  -->
  <defs>
    <style>
      .st0 {
        fill: #ddd;
        stroke: #ddd;
        stroke-miterlimit: 10;
      }

      .st1 {
        fill: #1d1d1d;
      }
    </style>
  </defs>
  <g id="Layer_11">
    <circle class="st1" cx="360.5" cy="360.5" r="356.5"/>
  </g>
  <g id="Layer_2">
    <g>
      <path class="st0" d="M399.5,92.1c7.5,4.3,13.2,7.9,19.5,14.3,6.3,6.5,7.6,9.3,10.9,14.2,4,.4,7.2-6.1,9.5-6.8s23-3.9,25.4-3.9c13.8.4,44.2,12.5,53.3,23.6,9.2,11,16.9,29.6,19,37,2.1,7.4-.5,1.9-.4,2.9,12.5-4.5,25.3-11.9,38.9-12.2,13.7-.3,24.2,6,30.4,10.6,9.7,7.1,27.5,39.7,29.5,51.6,6.6,41.4,6.7,56.2-16.4,90.9-33.9,51.1-71.1,66.7-130.7,74.3-23.6,3-47.5,5.9-71.5,3.4l-1.4,12.1c7.2-.8,14.5.6,21.7.5,31.8,0,65.1-3,96.8,1,10,1.3,19.6,3.6,27.8,9.8,9.2,19.9-9.3,22.6-24.1,25.3-26.6,4.7-60.7,5.2-88,5.7-11.6.2-23.3-1.5-34.7.9,1.5,2.3-.6,4.7-.5,6.7.5,19.6,8.6,47.8,19.9,63.9,13.5,19.3,41.2,0,28.7-13.4-4.7-5.1-12-2.4-17.6-.9-6.5-17,11.8-36.2,28.4-36.9,2.7,0,20.5,2.5,22.5,3.6,14,8,25.5,38,25.7,53.5.5,25.5-23.7,46.3-46.2,51.9-22.5,5.6-1.8,2-2.9,2.2s-.2-.9-.4-.8c-4,.7-5.9.6-9.8.4s.9,1.4-.7.9l-.3-1.4h-12c-1.7-1.1-2.6-4.9-2-6.5,1.3-3.2,10.4-2.9,13.8-3.5s2.2-1.9,3.6-2.1c4.4-.7,8.5.5,13.9-1.4,5.4-1.9,13.3-10.1,18.2-14,4.9-3.9,1.7-2.2,2.9-3.2l1.1,3.3,2.3-6.1,1.9.5,1.9-5.3-1.9-1.9,3-.7c1.4-1.3,0-4.5.3-4.7s1.6,0,1.9-.7-.5-1.5-.4-2.2c.7-3.3,3.2-10.2,2.1-13.7s-2.2,0-1.7-2.1l1.9-.3c0-.7-5.4-3.7-2.3-5.8l1.4,3.3c.5-3.9-2.7-5.7-4-8s0-1.9-.7-2.9-1.6-.6-1.8-.8c-.7-1,0-4.4-3.2-4.6l.3-1.9-1.4.7c-8.4-20-42.3-24.1-44.7,2.1,4.5-1.7,6.9,2.5,9.9,3.8s6.3.2,8,2.7l4.5,15.6c1.8,10.6-25.5,19.6-32.5,19.3s-5.8-3.5-9-2c-.6-.2-8.4-6.8-8.8-7.3-5-6.4-16.2-33.5-18.2-41.7-2.8-12-3.3-24.2-2.9-36.5l-2.1.5c-.6.6,0,12.4-.4,14.6-1.2,5.9-5.1,11.4-5.9,18.8-1.7,14.6,6,36.8,15.3,48s4.9,3.3,5.1,3.6c.3.5,0,2.5.8,3.6,14.5,19.1,22.5,36.9,21.1,61.8-.3,5.3-2.4,12.1-2.3,17.2,0,3,2.1,7.7,1.9,9.7s-4.6,9.5-5.3,11.5.4,1.8,0,2.6c-1.3,2.9-5.5,6-5.2,10.6-2.2,0-4.3,4.7-5.7,5.8s-5.1,2.5-6.4,3.2-2.1,0-2.4,0,.5.8.5.8c-2.6,1.3-8,4.4-10.6,5.1-10.9,2.8-26.9,2.3-36.8-3.1-10.4-5.7-15.4-19.9-14.6-31.3l-12,9.5c-8.7,8-24.8-1.7-34.3-7.7-28.7-17.9-37.6-48.1-14.7-75.9,0,0,1.1.5,1.3.2,15.7-19.3,28.7-34.4,29.3-61.5s-3-8.7-3.6-14,1.9-32-1.6-36.1-5.5-2.8-7.4,0c.9,27.1-5.5,55.1-20.5,77.8-15,22.7.4,1.8,0,2.2-.9,1.2-7.9,6.1-9.3,7.8-2.3-2.2-5.4,1.7-8.6,1.9-5.1.2-27.6-8-30.3-12.4s1.7-16.5,3-23l17.8-6.4c1.2-1-4.3-11.7-5.3-13-5.7-7.3-21.1-5.2-28.5-1-4.6,2.6-8.9,7.7-10.9,12.4l-1.4-.7.3,1.9c-3.1,0-2.5,3.6-3.2,4.6s-1.3,0-1.8.8-.3,2.2-.7,2.9c-1.3,2.3-4.6,4.1-4,8l1.4-3.3c3.1,2.1-2.3,5.1-2.3,5.8l1.9.3c.6,2.1-1.4,1.1-1.7,2.1-1.1,3.5,1.3,10.4,2.1,13.7s-.5,1.7-.4,2.2c.3.9,1.8.7,1.9.7,0,.2-1.1,3.4.3,4.7l3,.7-1.9,1.9c2.6,1.1.2,6.7,3.7,4.9l2.3,6.1,1.1-3.3c1.1.9,1.7,2.2,2.9,3.2,5.1,4.2,11,11.5,18.2,14,5.7,2.1,9.8.7,13.8,1.5s2.2,1.9,3.1,2.1c3.6.7,12.3,0,13.9,3.4l-.7,5.9c-4.6,3.1-10.4-1-14.2,2.2l.3-.9c-3.2.6-6.5,0-9.6-.4s0,.9-.4.8c-1.1-.4-1.5-1.9-2.9-2.2-42.9-10.8-57.9-51.7-34.5-89.7,2.3-3.8,9.8-13.2,13.5-15.4s20.9-4.5,23-4.5c15.3.4,34.9,20.8,27.9,36.9-7-2.6-18.2-3.8-20.1,5.9-3.2,16.4,21.1,22.8,31,8.6,10.8-15.4,18.3-41,17.8-60,2.4-3.1.2-8,.7-12-.5-.6-12.3-1.3-14-1.3-11.5,0-23.2.5-34.9.3-6.5,0-14.7,1.2-21,1-6.3-.2-13.7-2.3-19.6-2.8-10.9-.9-20.4-.5-31.5-2.4-6.2-1.1-24.5-4.6-26.4-10.9-5.2-18.1,17.2-22.5,30-24.2,38.5-5.1,78.3.6,117.1-3.5l-1.4-11.6c-7.5,0-15.1,1.8-22.6,1.9-48.6.7-108.8-9.6-147.7-40.5s-45.4-57-49.8-75.6c-2.3-9.9,1.6-49.4,4.6-59.6,2.6-8.9,18.8-37.5,25.6-43.3s24.3-12.3,32.6-12.2c13.7.2,26.4,7.7,38.9,12.2,0-1-.7-1.9-.4-2.9,2.1-7.4,14.1-31.1,19-37,9.2-11,39.5-23.1,53.3-23.6s23.2,3.2,25.4,3.9,4.1,6.3,8,5.8,9.7-16.2,15.9-19.6,9-4.9,14.6-8.1c15.1-9,40.6-7.5,58.2-9.8,8.8,2.5,14.9,5.7,22.7,10.1v.3h0ZM395.7,182.2c.6-4,.2-8.7,1-12.6,1.8-8.5,8.5-25.5,13.8-32.3s8.3-5.6,11.6-9.8c-8.4-15.3-24.1-30.1-41.4-34.9s-35.6-1.3-46.5,2.4-26.6,14.3-29.9,19-2.1,9.1-8,12.1c3.4,5.3,9.2,6.7,13,11.8s11.7,23.2,13.5,31.7,1.3,11.6,1.1,12.4-1.4.2-1.4.3c0,1.2.8,2.9.7,4.3-1.9,26.9-6.4,49.8-23.1,71.4-16.7,21.6-2.7,4-3.3,5.8l-1.4-1.4-19.3,22.6c-11.1,5-23.4,10.7-36.3,9.4-5.3-4.2-3.3-5.8,1.9-7.8s5.9-1.4,8.6-3.1c30.1-4.5,56.4-44.7,59.1-73.2s0-50.6-5.7-63.3c-5.2-11.5-28.4-24.4-40.7-27.3s-34,5.3-43.1,10.8-12.4,9.9-10.6,15.3h-2.2c-5.3,10.4-10.7,20.8-13,32.3,3.2,5.8,9,10.5,12.2,16.3,5,9.2,9.7,35.4,7.4,45.2s-5.8,7.9-6.8,10.1-1,6.6-1.2,6.9-3.2,1.3-4.3,2.4c-8.9,8.6-15.7,8.4-26.7,13.4l-5-1.3-1.2-3.8,5.1-.3-.7-2.6c3.6-.9,7-2.8,10.6-4.1s3.6.3,4,0c4.4-1.3,16.5-23.8,16.1-28.4s-2.2-1.7-1.9-3.4l1.7-1.5c-1-12.6-2.5-29.3-13-38.3-9-7.7-29.9-15.1-41.6-16.8-4.6-.7-22.6,2.3-26.4,4.7s-1.4,2.3-2.6,3.4-2.2,0-2.3.3.6,1.3.5,1.4-1.4,0-1.9.7c-2.3,3.2-3,8.9-6.9,10.8l1.9,1.1-1.4-.2c.2.7-2.7,6.9-3,7.2-.6.7-1.8-.3-2.1.2-3,4.2-5.4,12.8-6.1,18l-.9-.5c-1.4,7.2-4.5,13.7-5.1,21.1s-.6,35,2.1,43.7,14.4,23.1,21.8,32.8c1.6,2.2,2.8,6.3,5.1,8.3l-1.9.5c6.4,5.2,12,14.6,18,19.7,6.9,5.9,44.4,27.5,52.6,28.4,3.8.4,10.1-.9,14.5-.4,14.2,1.5,30.6,4.7,45.1,6.6,2.5.4,6.1,2,8,2.2s.7-.9.8-.9c1.5.2,5.3,1.7,7.1,2.2,3.8-1.8,8.5-.6,12.8-.8s.7-1.4,1-1.4,3.6,1.7,5.6,1.4,1-1.4,1.5-1.4c5.1-.7,10-.7,15-1.9l-.3-5.5h-1.6l1.4,2.1-1.1,1.1-1.7-3.3c-3.6.7-7.3.9-10.9,1.4s.4,1.3-.9,1.5-2.1-.9-2.8-.9c-13.7.3-44.4,0-51.4-13.9-6.9-13.8-2.2-8,3.5-11.2,11.8-6.7,22-7.3,35.2-7.3s.9-1.2,1.1-1.2c9.5.2,22.4,4.6,32.6,4.7s10.9-.4,11.4-.7l.7-13.8,9.5-4.4c-7.7-3.9-14.5-.2-17.6-9.9-5.1-16.2,2.3-31.3,10.9-44.8s18.7-26.9,25.7-27.4l9.6,3.6c9-5.6,12.8-5.4,20.3,1.6s17.2,22.8,21,35.6l.9-.5c-.8,3.9,2.6,8.5,3.7,12.4,2.3,7.9,4.8,16.4,1.3,24.3l-12.4,5.2c13.7-1.4,10.5,11.5,10.3,20.5,4.9-.3,10.3.3,15.2,0,19.6-1.2,39.6-9.3,59.9-2.5,2.9,1,14,6.2,15.1,9.1.3,2.1-.7,4.9-1.7,6.6-6.8,13.5-38.8,15.1-52.3,15.3s-1.9,1.1-2.8,1-1-1.4-1.5-1.4c-3.6-.4-6.9-1.2-10.5-.9l-2.4,3.3-.9-3.7-.7,5.6c5.4,1.9,10.3,1,15.6,1.5s.6,1.5,2,1.6,4.3-1,5.5-1c3.6,0,11.1,1.2,14.4,1s1.4-1.2,2-1.2c.8,0,.7.9.8.9.8,0,2.4-1.5,3.5-1.7,17.8-2.8,37.7-6.6,55.2-8.6,9.2-1,12.8,1.1,22.5-2.2,31-10.8,54-33.8,71.3-59.6,18.3-27.3,21.6-43,17.2-77.7l-11.1-32.3c-2.2.8-5-5.5-5.1-7.4l-1.4.2,1.9-1.1c-3.9-1.9-4.6-7.6-6.9-10.8s-1.9-.6-1.9-.7.7-1.2.5-1.4-1.8.2-2.3-.3c-1.2-1-1.1-2.4-2.6-3.4-4-2.4-22-5.4-26.9-4.7-11.7,2-32.2,9.2-41.2,16.8s-12,25.5-13,38.3c3.6,2.6,0,4.1-.2,4.8-.3,3.1,7.4,19.2,9.6,22.5,5.9,8.9,14.7,13.8,25.4,14.5l-1.4,2.5-4.8,1.1c-10.9-5-17.9-4.9-26.7-13.4s-4.2-2.2-4.3-2.4c-.2-.3-.6-5.5-1.2-6.9-.9-2.2-6.6-9.4-6.8-10.1-2.4-10,2.5-36.3,7.6-45.6,5.1-9.3,9.1-10.4,12-16.4-2.6-11.4-7.8-21.7-13.1-31.9-3.8.7-1.2-1.5-2.1-4.2-3.8-13-42.5-24.8-54.4-21.8-11.9,3-35,15.6-40.3,27.2-5.4,11.9-6.8,44.5-6.2,58.1,1.3,28.6,21.1,59.3,45.9,73.4,24.8,14,6.5,3.4,7.4,3.6s1.4-1.4,2.9.5c3.6-1.5,7.8,3.5,9.5,4.2s4.9-.7,6.5,1.2-.2,5.3-2.6,6.3c-17.2-.9-33.6-9.3-45.6-21.5-12-12.3-5.2-6.8-8.2-10l-1.4.7c-2.2-5.2-8.6-9.6-11.4-14-4.3-7-6.9-18.4-10.9-25.9l-2.9-.8,2.3-2.3-5.5-38.5-.5.4h0ZM359.2,279.6c4.6,14.3-1.8,40,16.8,44.5l18.1-9c2-4.2-7.3-26.9-9.6-32.1s-3.3-7.2-5.1-10.8-9.5-16.7-11.5-18.7-3.1-1.9-4.2-2c-5.7,0-6.3,4.7-7.3,9.1l-1.6,1.2-2.5-1.1c-.5-5.5-3.1-9.4-9.2-6.8s-20.1,31.1-22.7,36.4c-4.4,8.8-8.3,15.5-3,25.4l23.8,7.7,3.6-3.9,6.3-35.4,2.2-.6,1.4,2.3-1.3,22.7,1.9,1c-1.6,2.7-.7,7.2-1.4,9.6s-1.3.7-1.7,1.3.3,2-.2,2.5-1.7,0-2.2.7.6,1.6.3,1.9c-.6.5-12.3,6-13.3,6.1s-4.8-.9-5.3-.7c-.9.2-6.2,2.7-6.5,3.4v1.1c4.2-.9,1.3,4.5,1.4,4.9,1.6,16.8,2.3,33.4,2.3,50.3s.6,11.2.5,16.4-1.8,14.2-1.9,20.8l21,.5c1.4-6.3-3.2-11.4-3.3-17.5s1.7-12.3,1.3-16.2-2.5-8.1-2.7-10.3c-.7-9.6-1.3-19.6-2.3-28.4s1-1.5.9-2.7c-.3-2.2-1.6-3.6-1.7-4.2s1.1-1,.7-2.7-3-3.4-2.7-5.2l.7-2.1c6.6-5.1,7.9,5.9,9.4,10.2s3.2.8.7,4.7l1.8,1.2c.6,2-1.3.4-1.4,1.8,0,2.7,1.2,6.5,1.3,8.8.6,14.8,2.2,29.8,1.1,44.3,3.2,5.9.6,21.7,10.7,18.7l.5-.9c.5-1.8-2.5-8.6-2.8-11.1-1-8.4,0-19.4-.5-27.9s-2.4-13-2.7-18.2-.6-16.7,0-19.1,1.5-.6,1.7-1.1-.7-2.6,1.1-3.6l2.3,2.2.9-2.3.2,3.3c3.8,0,.4,5.5.2,8.6-.4,8.9,2.1,20.5,3.3,29.4-2.6,1.7-.2.9,0,3.3.7,9.3-.2,26.5,2,34.6,0,.2,1.9,2.3,2.1,3.3l19.3.6c-3.7-7.5-3.5-19.5-2.8-27.7s2.6-9.3,2.7-13.1-2.5-14.7-2.2-17.8,1.9-2.7,2.2-5.4c.5-4,.2-25.5-2.8-27.5-1.5-1.5-4.3,0-5.2-.3-2.6-.8-22.7-11.9-23.5-13.8,0-13.6-3.5-28.2-1.4-42.2l2.2-1.8-.2-.3h0ZM282.8,355.1c-12.5-1.6-25.8-5.1-38.3-.7l-2.6,4.8c.4,4.8,15.1,6.8,19.4,7.2,4.3.4,30.9.9,34.8,0s6-6.2,3.8-8.7-11.6-1.4-15-1.9-1-1.4-1.1-1.4c-1.4-.2-.8.8-1,.8h0ZM434.7,356.4c-3.2.6-15.7,1.1-17.1,3.2l.4,5.2c.5,1,3.4,2.7,4.6,2.9,6,1,29.1-.2,35.7-1.1,5.4-.7,27-3.8,16.8-12.4-13.3-3.7-27.2,0-40.4,2.1h0ZM309.5,359.1v67.8h9.8c0-6.2,1-12.5,1.1-18.7.2-11.1-.7-22.7-1.1-33.8s.9-16.5-.4-17.8c-1.6-1.1-8.8,0-9.4,2.3h0ZM408.2,428.3v-66.9c-1.1-2.6-7.6-4.8-9.5-3l-1.1,2.2c.8,18.1-.3,35.9,1.4,53.5,1.7,17.6-1.1,9.2,1.4,14.2h8,0ZM292.5,407c-14.1.2-28.4,2.4-42.6,2.6-22.7.3-42.5-1.6-65.6,2-8.4,1.3-23.6,3-23.5,14,.7,1.1,1.6,1.8,2.5,2.6,21.1,17.3,117.4,10.2,147.2,10.3,47.3.3,94.4,3.4,141.7,2.3,47.3-1,79.9-.3,102.3-10.6,5.1-2.3,4.7-7.9,1.4-11.6-11.4-13-79.8-9-98.1-9.1-18.2,0-40.2-2.3-42.7-.3l-.6,2.9,1.9,1.9c37.5,3.2,75.8-1.9,112.9,4l12.8,4.4c.7,1.1-.7,3.7-1.6,4.5-7.1,6.5-81.9,7.5-95.8,7.7-41.7.6-83.6-1.7-125.3-2-38.2-.2-76.5,3-114.6-.5-4.2-.4-21.6-2.4-24.4-4s-3.2-3.5-3.7-5.1c.5-2.2,16.2-6,18.8-6.4,32.9-4.4,70.8,0,104.3-4.2l3.2-2-.7-3.4c-1.6-1.3-7.6-.7-9.8-.6v.3h0ZM189.2,424.1c-2,3.2,23.7,3.9,25.1,4s2.2,1,3.6,1.1c27.9,1.4,56.3-2.3,83.8-2.4l1.8-8.1-1.2-1.6c-4.3,2.6-9.5.7-14,.9-11.3.7-23,3.3-34.4,3.7-21.5.9-43.2-1.7-64.6,2.3h0ZM530.8,424.6l-16.1-3.7-99.9-1.4.4,7.6c.6.7,3.5.7,4.5.7,27.8,2.2,71.8,2.8,99.2,0,2.9-.3,10.4-1.1,12-3.2h0ZM348.6,446.9l-21-1.4c1.8,9.8-.8,21.8.5,31.4.8,6,4.9,13.1,5.5,20.6s-9.5,42.9-14.6,51c-2.6,4.1-8.7,7.7-12.2,11.6-6.7,7.8-13.3,23.6-12.1,34s4.5,16.1,6.9,19.2,1.4-.2,1.6,0c23.7,28.4,48.7,23,60.4-11.7,11.8-34.7,3.9-41.3,0-54.9-1.5-5.2-4.8-10.6-7.5-15.3l1.5-3.9,6.8,6.8c6.8,13.7,12.2,23.9,13.5,39.6,1.4,17.2-4.8,22.7-8.2,37.9-3.5,15.2-3.8,19.9-3.6,22,.5,4.6,4.2,10.9,4,15.9,1.5,3,5.2,2.6,5.9,3.2,1.2,1.2-1.2,3,3.3,3.9s12.8.2,16.1-.5,2.1-1.7,2.4-1.8c1-.3.5,1.2,1.3.9,6.5-2.2,13.3-9.5,20.1-12.1,44.5-54.1-19.6-98.2-27.3-150.2-.3-1.7-2.2-4.3-2.1-5.6.2-4.9,5.1-16.4,5.8-22.5s0-15.2-1.3-16.2c-2.6,0-5.1-.5-7.8-.7s-1.3.9-1.9.8-.4-1.3-.9-1.3c-1.4,0-10.9,0-11.2.4l2.9,32.4-3.7,2.4-4.3-5.8-2.6-28.5-8.1-1.4,1.4,21.2-3.5,2c-2.2-.4-3-.5-3.9-2.5s-1.2-20.1-2-21.1h-.2,0Z"/>
      <path class="st0" d="M411.9,504.2c7.8,18,14.6,34.7,33.6,43.3-22.8.2-32.5-24-34.5-43.1l.9-.3h0Z"/>
      <path class="st0" d="M311.3,504.2c-2.1,18.2-10.9,44.5-33.6,43.8l13.3-8.9c4.8-5.1,8.8-11.1,12-17.4,2.8-5.6,3.9-13.1,8.3-17.6h0Z"/>
      <path class="st0" d="M411.9,504.9c.5,1.6.9,3.1,1.4,4.7"/>
      <path class="st0" d="M439.9,545.8c2,.7,3.9,1.3,5.8,2"/>
      <path class="st0" d="M311.3,504.9c-.5,1.6-.9,3.1-1.4,4.7"/>
      <path class="st0" d="M283.4,546.8c-1.6.5-3.3.8-4.9,1.3"/>
      <path class="st0" d="M359.3,280.3c-.2.9-.3,1.9-.5,2.8"/>
      <path class="st0" d="M501,547.3c-.3.9-.7,1.9-.9,2.8"/>
      <path class="st0" d="M219.5,547.3c.3.9.7,1.9.9,2.8"/>
      <path class="st0" d="M419.9,375.6l-1.4,3.5"/>
      <path class="st0" d="M120.9,325.6c-.7-.4-1.6-.7-2.3-1.1"/>
      <path class="st0" d="M299,373.5c-.6,1.5.9,2,1.4,3"/>
      <path class="st0" d="M208.8,513.8c-.7.3-1.6.7-2.3.9"/>
      <path class="st0" d="M511.7,513.8c.7.3,1.6.7,2.3.9"/>
      <path class="st0" d="M510.5,507.8c0,1,.2,2.1.4,3.6,1.4-.2,2.6-.4,3.8-.6"/>
      <path class="st0" d="M209.9,507.8c0,1-.2,2.1-.4,3.6-1.4-.2-2.6-.4-3.8-.6"/>
      <path class="st0" d="M279.3,381.9c.2,1.1.5,2.2.7,3.3"/>
      <path class="st0" d="M214.1,537.6c-1.1.4-2.2.7-3.3,1.1"/>
      <path class="st0" d="M509.6,538.7c-1.1-.4-2.2-.7-3.3-1.1"/>
      <path class="st0" d="M247,575.3c0,1.1-.2,2.2-.2,3.3"/>
      <path class="st0" d="M473.5,575.3c0,1.1.2,2.2.2,3.3"/>
      <path class="st0" d="M538,421c0,.9-.2,1.9-.2,2.8"/>
      <path class="st0" d="M395.8,477.2c-.9,0-1.9-.2-2.8-.2"/>
      <path class="st0" d="M254.9,476c0,.9-.2,1.9-.2,2.8"/>
      <path class="st0" d="M636.3,283.6c-.9,0-1.9-.2-2.8-.2"/>
      <path class="st0" d="M391,446.7c-.2.9-.3,1.9-.5,2.8"/>
      <path class="st0" d="M330,641.9c0,.9-.2,1.9-.2,2.8"/>
      <path class="st0" d="M319,155.5c-.9,0-1.9.2-2.8.2"/>
      <path class="st0" d="M404.2,155.7c-.9,0-1.9-.2-2.8-.2"/>
      <path class="st0" d="M268.4,382.8c.2.9.3,1.9.5,2.8"/>
      <path class="st0" d="M520.7,509.2c-.9,0-1.9.2-2.8.2"/>
      <path class="st0" d="M202.5,509.3c-.9,0-1.9-.2-2.8-.2"/>
      <path class="st0" d="M277.7,343.7c-.2.9-.3,1.9-.5,2.8"/>
      <path class="st0" d="M400.5,344.2c-.9,0-1.9.2-2.8.2"/>
      <path class="st0" d="M250.7,498.9c.2.9.3,1.9.5,2.8"/>
      <path class="st0" d="M233.2,357.5c-.9,0-1.9.2-2.8.2"/>
      <path class="st0" d="M296.4,346.1c-.2.9-.3,1.9-.5,2.8"/>
      <path class="st0" d="M99,215.5c-.9,0-1.9-.2-2.8-.2"/>
      <path class="st0" d="M624.2,215.4c-.9,0-1.9.2-2.8.2"/>
      <path class="st0" d="M474.4,346.5c-.2.9-.3,1.9-.5,2.8"/>
      <path class="st0" d="M520.7,537.3c-.9-.2-1.9-.3-2.8-.5"/>
      <path class="st0" d="M202.5,536.9c-.9.2-1.9.3-2.8.5"/>
      <path class="st0" d="M386.1,85.6c0,.9-.2,1.9-.2,2.8"/>
      <path class="st0" d="M490,357.7c-.9,0-1.9-.2-2.8-.2"/>
      <path class="st0" d="M315,354.4c.2.9.3,1.9.5,2.8"/>
      <path class="st0" d="M87,283.4c-.9,0-1.9.2-2.8.2"/>
      <path class="st0" d="M388,86c0,.9-.2,1.9-.2,2.8"/>
      <path class="st0" d="M433.2,639.9c.9.2,1.9.3,2.8.5"/>
      <path class="st0" d="M293.4,618.4c-.9.2-1.9.3-2.8.5"/>
      <path class="st0" d="M160,417.6c-.9,0-1.9-.2-2.8-.2"/>
      <path class="st0" d="M563.1,417.4c-.9,0-1.9.2-2.8.2"/>
      <path class="st0" d="M347.2,324.6c0,.9.2,1.9.2,2.8"/>
      <path class="st0" d="M296.4,261c.2,1,.3,2.1.5,3"/>
      <path class="st0" d="M603.7,325.3c-.9-.2-1.9-.3-2.8-.5"/>
      <path class="st0" d="M348.6,84.6c.2.9.3,1.9.5,2.8"/>
      <path class="st0" d="M259.3,282.2c0,.9.2,1.9.2,2.8"/>
      <path class="st0" d="M391.2,371.4c-.9-.2-1.9-.3-2.8-.5"/>
      <path class="st0" d="M372.8,480.7l-.7,2.8"/>
      <path class="st0" d="M256.8,576.7c.2.7.3,1.4.5,2.1-.3,0-.5.2-.7.3"/>
      <path class="st0" d="M425,261.7c0,.7-.2,1.6-.2,2.3"/>
      <path class="st0" d="M218.4,417.4c0,.6,0,1.1,0,1.6"/>
      <path class="st0" d="M306.2,422.2c-.6,0-1.1,0-1.6,0"/>
      <path class="st0" d="M197.5,406.1c0,.6,0,1.1,0,1.6"/>
      <path class="st0" d="M363.3,347c-.2,1-.5,2.1-.7,3"/>
      <path class="st0" d="M522.7,406.1v1.6"/>
      <path class="st0" d="M110.7,194.6c-.3-.2-.7-.3-.9-.5-.3,0-.5.2-.7.3"/>
      <path class="st0" d="M611.4,194.4c-.2,0-.5-.2-.7-.3-.3.2-.7.3-.9.5"/>
      <path class="st0" d="M359.3,295.9c-.4,0-.7,0-1.1,0"/>
    </g>
  </g>
</svg>